#!OML:ASF F:\VICON\USERDATA\INSTALL\rory3\rory3.ASF
:FULLY-SPECIFIED
:DEGREES
1387
root -5.2462 17.631 -1.32029 1.39786 84.6773 -4.35551
lowerback 6.32684 0.0483247 -0.496252
upperback 1.74134 0.0923961 1.15
thorax -1.75551 0.0619731 1.45376
lowerneck -8.25031 -16.2779 -14.8445
upperneck 21.5412 -21.7523 7.88697
head 10.8014 -10.4558 2.10836
rclavicle 5.46658e-016 -2.04748e-014
rhumerus -20.4934 10.7663 -94.2123
rradius 45.4648
rwrist -4.82768
rhand -15.4364 4.44135
rfingers 7.12502
rthumb 10.7439 -25.2639
lclavicle 5.46658e-016 -2.04748e-014
lhumerus -32.0696 9.58774 75.0647
lradius 52.6108
lwrist -10.8852
lhand -0.387996 26.0074
lfingers 7.12502
lthumb 25.2187 54.361
rfemur -23.5456 -7.6281 15.6714
rtibia 36.2146
rfoot -18.0991 -11.1412
rtoes 8.89996
lfemur -12.3932 -3.11413 -11.4517
ltibia 27.4253
lfoot -15.9184 2.5389
ltoes -18.4031
1388
root -5.26323 17.6306 -1.38452 -0.166114 84.966 -5.84142
lowerback 6.78865 -0.288591 -0.590233
upperback 1.66843 -0.355613 1.30803
thorax -2.07283 -0.15813 1.70792
lowerneck -8.20312 -16.17 -15.1373
upperneck 21.6392 -21.5331 7.77147
head 10.8244 -10.389 2.14762
rclavicle 8.05078e-015 -6.95746e-015
rhumerus -21.2203 9.33102 -93.2138
rradius 45.8802
rwrist -6.24463
rhand -15.5886 4.01004
rfingers 7.12502
rthumb 10.597 -25.7028
lclavicle 8.05078e-015 -6.95746e-015
lhumerus -32.5123 9.95833 75.0543
lradius 52.6777
lwrist -10.8267
lhand -0.760923 26.1261
lfingers 7.12502
lthumb 24.8613 54.5295
rfemur -23.3346 -7.71113 15.5608
rtibia 35.9623
rfoot -18.1087 -11.3606
rtoes 9.22015
lfemur -12.4156 -3.37061 -11.488
ltibia 27.3608
lfoot -15.9646 2.23372
ltoes -17.5188
1389
root -5.26945 17.6295 -1.44661 -0.760705 84.8697 -6.50191
lowerback 7.0639 -0.42852 -0.76728
upperback 1.49026 -0.551803 1.42207
thorax -2.40012 -0.25225 1.94622
lowerneck -8.054 -16.1096 -15.5769
upperneck 21.831 -21.4095 7.78469
head 10.9102 -10.3645 2.23505
rclavicle 7.95139e-015 -8.74653e-015
rhumerus -22.0399 7.92299 -92.0281
rradius 46.3153
rwrist -7.87951
rhand -15.8552 3.56622
rfingers 7.12502
rthumb 10.3398 -26.1596
lclavicle 7.95139e-015 -8.74653e-015
lhumerus -33.0389 9.98416 75.0613
lradius 52.7418
lwrist -10.8626
lhand -0.358227 25.7899
lfingers 7.12502
lthumb 25.2472 54.1396
rfemur -23.3453 -7.65881 15.4363
rtibia 35.7107
rfoot -17.8468 -11.5497
rtoes 8.36044
lfemur -12.457 -3.21199 -11.6021
ltibia 27.3016
lfoot -16.1377 1.9503
ltoes -16.2876
1390
root -5.25834 17.6343 -1.51243 -0.199697 84.4586 -6.07495
lowerback 6.89445 -0.431429 -1.00593
upperback 1.42305 -0.573831 1.45322
thorax -2.37136 -0.262508 2.1133
lowerneck -7.88664 -16.0739 -15.8094
upperneck 21.9408 -21.3567 7.8123
head 10.9465 -10.3588 2.2932
rclavicle 2.5345e-015 1.59028e-014
rhumerus -22.6522 6.41738 -90.8118
rradius 46.6295
rwrist -9.50023
rhand -16.1669 3.30675
rfingers 7.12502
rthumb 10.0392 -26.4338
lclavicle 2.5345e-015 1.59028e-014
lhumerus -33.3992 9.90623 75.0712
lradius 52.8324
lwrist -10.9115
lhand -0.987305 25.8456
lfingers 7.12502
lthumb 24.6444 54.2789
rfemur -23.4445 -7.41546 15.2118
rtibia 35.4585
rfoot -17.5582 -11.6619
rtoes 7.61325
lfemur -12.4367 -2.95196 -11.8559
ltibia 27.2369
lfoot -16.3045 1.97657
ltoes -15.8357
1391
root -5.24923 17.6408 -1.58225 1.22539 84.1822 -4.7546
lowerback 6.69879 -0.503001 -1.29117
upperback 1.4161 -0.690706 1.42714
thorax -2.26113 -0.320858 2.25461
lowerneck -7.634 -16.0019 -16.2561
upperneck 21.9129 -21.3307 8.25874
head 10.9989 -10.3463 2.52304
rclavicle 1.78906e-015 -3.77691e-015
rhumerus -23.1103 5.01579 -89.6476
rradius 46.8942
rwrist -11.3547
rhand -16.6408 3.02537
rfingers 7.12502
rthumb 9.58197 -26.7367
lclavicle 1.78906e-015 -3.77691e-015
lhumerus -33.6302 9.84853 75.0929
lradius 52.943
lwrist -10.746
lhand -3.13831 26.7552
lfingers 7.12502
lthumb 22.5812 55.4545
rfemur -23.5091 -7.39088 14.8538
rtibia 35.2094
rfoot -17.3145 -11.633
rtoes 7.66513
lfemur -12.4414 -2.97236 -12.2422
ltibia 27.1755
lfoot -16.3946 2.09166
ltoes -15.6196
1392
root -5.24728 17.6458 -1.64493 2.1568 83.9638 -3.92864
lowerback 6.62481 -0.608137 -1.61794
upperback 1.38347 -0.854464 1.41372
thorax -2.24079 -0.401246 2.43774
lowerneck -7.48121 -15.9228 -16.9653
upperneck 22.0276 -21.3405 9.03787
head 11.2041 -10.3304 2.88143
rclavicle -2.98177e-015 -3.18055e-015
rhumerus -23.5584 3.57173 -88.5193
rradius 47.2357
rwrist -13.1459
rhand -17.081 2.78499
rfingers 7.12502
rthumb 9.15716 -26.9962
lclavicle -2.98177e-015 -3.18055e-015
lhumerus -33.8241 9.81706 75.0642
lradius 52.9979
lwrist -10.6378
lhand -4.18472 27.1205
lfingers 7.12502
lthumb 21.5766 55.9385
rfemur -23.5631 -7.25513 14.5449
rtibia 34.9494
rfoot -17.2449 -11.596
rtoes 8.69498
lfemur -12.5176 -2.78154 -12.5393
ltibia 27.1465
lfoot -16.4096 1.90051
ltoes -14.9326
1393
root -5.24588 17.6488 -1.70331 2.21014 83.6587 -3.91182
lowerback 6.58912 -0.706814 -1.89067
upperback 1.39428 -1.00424 1.42465
thorax -2.19654 -0.475213 2.61433
lowerneck -7.70256 -15.9124 -17.468
upperneck 22.3925 -21.3504 9.43401
head 11.5011 -10.3174 3.05302
rclavicle 8.84592e-015 -1.05356e-014
rhumerus -23.9004 2.03678 -87.3918
rradius 47.573
rwrist -14.6061
rhand -17.235 2.40354
rfingers 7.12502
rthumb 9.00859 -27.3841
lclavicle 8.84592e-015 -1.05356e-014
lhumerus -33.9485 9.99192 74.9657
lradius 53.0322
lwrist -10.7182
lhand -4.13557 27.163
lfingers 7.12502
lthumb 21.6238 55.9756
rfemur -23.561 -7.01725 14.3479
rtibia 34.6967
rfoot -17.1571 -11.6454
rtoes 9.48573
lfemur -12.509 -2.54351 -12.7517
ltibia 27.1426
lfoot -16.462 1.9155
ltoes -14.6901
1394
root -5.24478 17.6507 -1.76573 2.58881 83.3278 -3.54639
lowerback 6.5677 -0.779778 -2.07526
upperback 1.39722 -1.11603 1.36122
thorax -2.17258 -0.53074 2.66141
lowerneck -7.85753 -15.9 -17.4956
upperneck 22.5658 -21.3199 9.42017
head 11.5938 -10.2985 3.0428
rclavicle 6.28657e-015 5.36719e-015
rhumerus -24.2795 0.388348 -86.2815
rradius 47.9874
rwrist -16.0893
rhand -17.354 1.84872
rfingers 7.12502
rthumb 8.89374 -27.9438
lclavicle 6.28657e-015 5.36719e-015
lhumerus -34.0739 9.92287 74.9072
lradius 53.148
lwrist -10.5353
lhand -4.37615 27.6116
lfingers 7.12502
lthumb 21.3927 56.4506
rfemur -23.5675 -6.98715 14.1266
rtibia 34.4545
rfoot -16.8536 -11.6508
rtoes 9.84005
lfemur -12.4759 -2.46003 -13.0395
ltibia 27.1481
lfoot -16.5195 2.15902
ltoes -14.7573
1395
root -5.24382 17.6562 -1.82894 4.05025 83.0081 -2.09717
lowerback 6.53042 -0.829739 -2.34212
upperback 1.38639 -1.20482 1.2273
thorax -2.15477 -0.574503 2.67983
lowerneck -7.75952 -15.8395 -17.4885
upperneck 22.5335 -21.2745 9.51137
head 11.5669 -10.2748 3.09177
rclavicle -1.19022e-014 -1.59028e-015
rhumerus -24.6863 -1.23251 -85.1868
rradius 48.4454
rwrist -17.7498
rhand -17.5849 1.18275
rfingers 7.12502
rthumb 8.67091 -28.6192
lclavicle -1.19022e-014 -1.59028e-015
lhumerus -34.1166 9.56333 74.8928
lradius 53.1984
lwrist -10.0228
lhand -4.50159 27.7827
lfingers 7.12502
lthumb 21.2722 56.6354
rfemur -23.5838 -6.931 13.7543
rtibia 34.2237
rfoot -16.492 -11.7621
rtoes 9.38025
lfemur -12.467 -2.16152 -13.4758
ltibia 27.1622
lfoot -16.611 2.11164
ltoes -14.5058
1396
root -5.24427 17.6628 -1.88754 4.59609 82.6147 -1.63954
lowerback 6.44122 -0.919087 -2.62821
upperback 1.36673 -1.34207 1.23568
thorax -2.10959 -0.642403 2.85886
lowerneck -7.81666 -15.7725 -17.5027
upperneck 22.5141 -21.1107 9.29593
head 11.5195 -10.2235 3.04748
rclavicle -1.59276e-014 1.82882e-014
rhumerus -24.9662 -2.41876 -84.0058
rradius 48.8617
rwrist -19.5787
rhand -18.1305 0.542254
rfingers 7.12502
rthumb 8.14443 -29.2808
lclavicle -1.59276e-014 1.82882e-014
lhumerus -34.164 9.43383 74.9625
lradius 53.2487
lwrist -9.39659
lhand -4.58671 27.7672
lfingers 7.12502
lthumb 21.1905 56.6291
rfemur -23.6972 -6.73261 13.5258
rtibia 33.9857
rfoot -16.2122 -11.8787
rtoes 9.1999
lfemur -12.5094 -1.99706 -13.7781
ltibia 27.1575
lfoot -16.6752 2.31304
ltoes -14.4144
1397
root -5.24284 17.6657 -1.94372 4.1075 82.25 -2.14065
lowerback 6.37911 -1.08852 -2.8182
upperback 1.39715 -1.57511 1.3575
thorax -2.01876 -0.759448 3.10793
lowerneck -8.02771 -15.7434 -17.4204
upperneck 22.503 -20.8805 8.65793
head 11.4298 -10.1708 2.84486
rclavicle -2.95195e-014 5.46658e-015
rhumerus -25.0971 -3.27991 -82.7825
rradius 49.2539
rwrist -21.5316
rhand -18.4763 -0.11225
rfingers 7.12502
rthumb 7.81061 -29.948
lclavicle -2.95195e-014 5.46658e-015
lhumerus -34.2638 9.75512 75.0476
lradius 53.3157
lwrist -8.83347
lhand -4.80754 28.0393
lfingers 7.12502
lthumb 20.9783 56.9248
rfemur -23.7027 -6.51238 13.432
rtibia 33.7484
rfoot -15.9631 -11.9884
rtoes 9.02263
lfemur -12.4232 -1.98205 -13.9396
ltibia 27.0964
lfoot -16.7232 2.67213
ltoes -14.7241
1398
root -5.23635 17.6678 -2.00332 3.85986 82.118 -2.15104
lowerback 6.53841 -1.27719 -2.91946
upperback 1.47414 -1.83484 1.34629
thorax -2.00584 -0.889076 3.17638
lowerneck -8.18079 -15.762 -17.1679
upperneck 22.5413 -20.7923 8.13316
head 11.3632 -10.1595 2.63708
rclavicle 1.38404e-014 -1.69961e-014
rhumerus -25.3063 -4.37073 -81.6761
rradius 49.7085
rwrist -23.508
rhand -18.5039 -0.82174
rfingers 7.12502
rthumb 7.78396 -30.6585
lclavicle 1.38404e-014 -1.69961e-014
lhumerus -34.2945 9.90565 75.0459
lradius 53.3404
lwrist -8.20633
lhand -5.07146 28.3225
lfingers 7.12502
lthumb 20.7248 57.2359
rfemur -23.3506 -6.32464 13.1979
rtibia 33.5385
rfoot -15.9665 -12.1526
rtoes 9.31545
lfemur -12.0844 -1.85777 -14.1798
ltibia 26.991
lfoot -16.7307 2.68113
ltoes -14.9563
